<svg width="75" height="72" viewBox="0 0 75 72" fill="none" xmlns="http://www.w3.org/2000/svg">
<g clip-path="url(#clip0_672_7731)">
<path fill-rule="evenodd" clip-rule="evenodd" d="M47.9732 23.9626C48.0497 24.4132 48.1178 24.801 48.1549 25.0058C48.3834 26.2512 48.5758 29.4135 49.4575 31.5642C50.1296 33.2052 51.2037 34.264 52.8373 33.8827C54.3222 33.536 55.2464 32.0557 55.6912 30.0092C56.6486 25.6048 55.4941 18.5684 54.5964 16.5328C54.4983 16.3106 54.2396 16.2099 54.0174 16.308C53.7962 16.4056 53.6955 16.6643 53.7936 16.8865C54.6546 18.8402 55.7526 25.5947 54.8336 29.8231C54.4742 31.4757 53.8368 32.748 52.6373 33.0278C51.4536 33.3044 50.757 32.4213 50.2698 31.2317C49.4113 29.1388 49.2403 26.06 49.0184 24.8472C48.8789 24.087 48.4287 21.1726 48.33 20.9321C48.2066 20.6309 47.9511 20.6391 47.8674 20.6481C47.8026 20.655 47.4816 20.7102 47.467 21.109C47.2561 26.7949 42.9968 35.3741 36.7318 41.117C30.5219 46.8096 22.3116 49.713 14.0863 44.0661C13.8862 43.9293 13.6127 43.9802 13.4755 44.1793C13.3387 44.3793 13.3896 44.6528 13.5896 44.7896C22.2081 50.7062 30.819 47.7282 37.3247 41.7647C42.8077 36.7388 46.7733 29.59 47.9732 23.9626Z" fill="#0D121F"/>
<path fill-rule="evenodd" clip-rule="evenodd" d="M14.3049 44.6631C15.3364 44.5782 16.3662 44.5264 17.3917 44.3613C20.1238 43.9218 22.8697 42.8864 25.0857 41.2124C25.2793 41.0655 25.317 40.7903 25.1715 40.5972C25.0246 40.4036 24.7494 40.3659 24.5563 40.5113C22.4542 42.1014 19.8446 43.0774 17.2524 43.4941C16.0785 43.6826 14.8976 43.7205 13.7162 43.8332C13.6573 43.8396 13.1425 43.8729 13.0358 43.9098C12.7868 43.9942 12.7376 44.1882 12.7263 44.2809C12.716 44.3582 12.7221 44.4533 12.7724 44.5594C12.8141 44.6463 12.932 44.7925 13.1312 44.9546C13.7677 45.4756 15.4269 46.4778 15.6818 46.6712C18.6043 48.8869 20.9513 51.4388 23.4894 54.0638C23.6585 54.2374 23.9369 54.2425 24.111 54.0743C24.2852 53.9062 24.2892 53.6283 24.1211 53.4542C21.551 50.7958 19.1707 48.2148 16.2123 45.9726C16.0376 45.8391 15.0289 45.1533 14.3049 44.6631Z" fill="#0D121F"/>
</g>
<defs>
<clipPath id="clip0_672_7731">
<rect width="57.0685" height="50.03" fill="white" transform="translate(74.1775 45.3685) rotate(153.036)"/>
</clipPath>
</defs>
</svg>
